# xmcd CD database file
#
# Track frame offsets:
#	150
#	18735
#	39744
#	57405
#	71149
#	82505
#	104468
#	120534
#	146034
#	163801
#	184484
#	202745
#	222113
#	234970
#
# Disc length: 3354 seconds
#
# Revision: 0
# Processed by: cddbd v1.5.1PL0 Copyright (c) Steve Scherf et al.
# Submitted via: CDex 1.51
#
DISCID=c60d180e
DTITLE=The Swedish Jazzitude - First Portrait
DYEAR=2005
DGENRE=Jazz
TTITLE0=What a Difference a Day Makes
TTITLE1=Polka, Dots and Moonbeams
TTITLE2=Black Orpheus
TTITLE3=It's Only a Paper Moon
TTITLE4=Tenor Madness
TTITLE5=Goergia On My Mind
TTITLE6=I Can't Give You Anything But Love
TTITLE7=Trubbel
TTITLE8=There Will Never Be Another You
TTITLE9=Summertime
TTITLE10=Fly Me To the Moon
TTITLE11=There Is No Greater Love
TTITLE12=Now's the Time
TTITLE13=Sakta vi gá genom stan
EXTD=YEAR: 2005
EXTT0=
EXTT1=
EXTT2=
EXTT3=
EXTT4=
EXTT5=
EXTT6=
EXTT7=
EXTT8=
EXTT9=
EXTT10=
EXTT11=
EXTT12=
EXTT13=
PLAYORDER=
